# xmcd
#
# Track frame offsets:
#	150
#	14842
#	39563
#	55761
#	69796
#	85470
#	99428
#	113042
#	127474
#	143286
#	160035
#	178258
#	191626
#	206525
#	221056
#	239109
#	268638
#	287400
#	300727
#	314586
#
# Disc length: 4467 seconds
#
# Revision: 1
# Processed by: cddbd v1.5.2PL0 Copyright (c) Steve Scherf et al.
# Submitted via: audiograbber 1.83.01
#
DISCID=2d117114
DTITLE=FRANCIS LOPES - E AMIGOS - OS REIS DA VAQUEJADA
DYEAR=1900
DGENRE=FORRÓ
TTITLE0=FRANCIS LOPES E SIRANO - O VAQUEIRO E A ROSA
TTITLE1=FRANCIS LOPES E BUSCAPÉ(ARREIO DE OURO) - VAQUEIRO AFAMADO
TTITLE2=FRANCIS LOPES - VIDA SOFRIDA
TTITLE3=FRANCIS LOPES - O REI DA VAQUEJADA
TTITLE4=FRANCIS LOPES E CASTANHA E CAJÚ - SOU NORDESTINO E NÃO NEGO
TTITLE5=FRANCIS LOPES E CANINANA DO FORRÓ - NORDESTINO BRASILEIRO
TTITLE6=FRANCIS LOPES E FRANK AGUIAR - TOU ESTOURADO
TTITLE7=FRANCIS LOPES E MARCOS SILVA(MULEKE DOIDO) - CARA A CARA(DÊRUNDÊRUNDÊ)
TTITLE8=FRANCIS LOPES E AMADO EDILSON - TIÃO(CABRA SOFREDOR)
TTITLE9=FRANCIS LOPES - TE PEÇO COMPAIXÃO
TTITLE10=FRANCIS LOPES E WILLIAM SILVA(100 PARÊA) - MULHER FINGIDA
TTITLE11=FRANCIS LOPES E MARCELO DANTAS - FESTA DE CAVALGADA
TTITLE12=FRANCIS LOPES - SONHANDO ME APAIXONEI
TTITLE13=FRANCIS LOPES E KETLY DIVINA - MULHER DE GADO
TTITLE14=FRANCIS LOPES - SAGA DO MIGRANTE
TTITLE15=FRANCIS LOPES - EU E MEU CAVALO BRANCO
TTITLE16=FRANCIS LOPES - COMENTÁRIOS SOBRE O PIAUÍ
TTITLE17=FRANCIS LOPES - EU SO FELIZ NO PIAUÍ
TTITLE18=FRANCIS LOPES NANAN LIMA - PARQUE NINA ALENCAR
TTITLE19=FRANCIS LOPES E GALEGO ABOIADOR - CABOCLO ENCORAJADO
EXTD=
EXTT0=
EXTT1=
EXTT2=
EXTT3=
EXTT4=
EXTT5=
EXTT6=
EXTT7=
EXTT8=
EXTT9=
EXTT10=
EXTT11=
EXTT12=
EXTT13=
EXTT14=
EXTT15=
EXTT16=
EXTT17=
EXTT18=
EXTT19=
PLAYORDER=
